<mxfile host="app.diagrams.net" modified="2020-09-03T23:32:35.123Z" agent="5.0 (Macintosh)" etag="ZGPzyH7Qut7YnHWv5cB9" version="13.6.2" type="github">
  <diagram name="Page-1" id="e3a06f82-3646-2815-327d-82caf3d4e204">
    <mxGraphModel dx="2124" dy="1508" grid="1" gridSize="10" guides="1" tooltips="1" connect="1" arrows="1" fold="1" page="1" pageScale="1.5" pageWidth="1169" pageHeight="826" background="none" math="0" shadow="0">
      <root>
        <mxCell id="0" style=";html=1;" />
        <mxCell id="1" style=";html=1;" parent="0" />
        <mxCell id="6a7d8f32e03d9370-57" value="&lt;font style=&quot;font-size: 24px&quot;&gt;GDSCC&lt;/font&gt;" style="whiteSpace=wrap;html=1;fillColor=#fff2cc;fontSize=14;strokeColor=#d6b656;verticalAlign=top;" parent="1" vertex="1">
          <mxGeometry x="20" y="140" width="490" height="300" as="geometry" />
        </mxCell>
        <mxCell id="6a7d8f32e03d9370-4" value="Client" style="verticalLabelPosition=bottom;aspect=fixed;html=1;verticalAlign=top;strokeColor=none;shape=mxgraph.citrix.desktop;fillColor=#66B2FF;gradientColor=#0066CC;fontSize=14;" parent="1" vertex="1">
          <mxGeometry x="369.99999999999994" y="252.63000000000005" width="89" height="98" as="geometry" />
        </mxCell>
        <mxCell id="6a7d8f32e03d9370-5" value="Client" style="verticalLabelPosition=bottom;aspect=fixed;html=1;verticalAlign=top;strokeColor=none;shape=mxgraph.citrix.desktop;fillColor=#66B2FF;gradientColor=#0066CC;fontSize=14;" parent="1" vertex="1">
          <mxGeometry x="300" y="255.38" width="86.5" height="95.25" as="geometry" />
        </mxCell>
        <mxCell id="6a7d8f32e03d9370-62" value="Citrix Network Architecture" style="text;strokeColor=none;fillColor=none;html=1;fontSize=24;fontStyle=1;verticalAlign=middle;align=center;" parent="1" vertex="1">
          <mxGeometry x="499" y="30" width="861" height="40" as="geometry" />
        </mxCell>
        <mxCell id="QgduFCgIXq2GSALbabZ4-1" value="Client" style="verticalLabelPosition=bottom;aspect=fixed;html=1;verticalAlign=top;strokeColor=none;shape=mxgraph.citrix.desktop;fillColor=#66B2FF;gradientColor=#0066CC;fontSize=14;" vertex="1" parent="1">
          <mxGeometry x="229.99999999999994" y="254.00000000000006" width="89" height="98" as="geometry" />
        </mxCell>
        <mxCell id="QgduFCgIXq2GSALbabZ4-3" value="" style="verticalLabelPosition=bottom;aspect=fixed;html=1;verticalAlign=top;strokeColor=none;align=center;outlineConnect=0;shape=mxgraph.citrix.site;" vertex="1" parent="1">
          <mxGeometry x="60" y="255" width="107" height="101" as="geometry" />
        </mxCell>
        <mxCell id="QgduFCgIXq2GSALbabZ4-4" value="&lt;font style=&quot;font-size: 24px&quot;&gt;MDSCC&lt;/font&gt;" style="whiteSpace=wrap;html=1;fillColor=#f8cecc;fontSize=14;strokeColor=#b85450;verticalAlign=top;" vertex="1" parent="1">
          <mxGeometry x="20" y="770" width="490" height="300" as="geometry" />
        </mxCell>
        <mxCell id="QgduFCgIXq2GSALbabZ4-5" value="Client" style="verticalLabelPosition=bottom;aspect=fixed;html=1;verticalAlign=top;strokeColor=none;shape=mxgraph.citrix.desktop;fillColor=#66B2FF;gradientColor=#0066CC;fontSize=14;" vertex="1" parent="1">
          <mxGeometry x="369.99999999999994" y="882.6300000000001" width="89" height="98" as="geometry" />
        </mxCell>
        <mxCell id="QgduFCgIXq2GSALbabZ4-6" value="Client" style="verticalLabelPosition=bottom;aspect=fixed;html=1;verticalAlign=top;strokeColor=none;shape=mxgraph.citrix.desktop;fillColor=#66B2FF;gradientColor=#0066CC;fontSize=14;" vertex="1" parent="1">
          <mxGeometry x="300" y="885.38" width="86.5" height="95.25" as="geometry" />
        </mxCell>
        <mxCell id="QgduFCgIXq2GSALbabZ4-7" value="Client" style="verticalLabelPosition=bottom;aspect=fixed;html=1;verticalAlign=top;strokeColor=none;shape=mxgraph.citrix.desktop;fillColor=#66B2FF;gradientColor=#0066CC;fontSize=14;" vertex="1" parent="1">
          <mxGeometry x="229.99999999999994" y="884" width="89" height="98" as="geometry" />
        </mxCell>
        <mxCell id="QgduFCgIXq2GSALbabZ4-8" value="" style="verticalLabelPosition=bottom;aspect=fixed;html=1;verticalAlign=top;strokeColor=none;align=center;outlineConnect=0;shape=mxgraph.citrix.site;" vertex="1" parent="1">
          <mxGeometry x="60" y="885" width="107" height="101" as="geometry" />
        </mxCell>
        <mxCell id="QgduFCgIXq2GSALbabZ4-9" value="&lt;font style=&quot;font-size: 24px&quot;&gt;CDSCC&lt;/font&gt;" style="whiteSpace=wrap;html=1;fillColor=#ffe6cc;fontSize=14;strokeColor=#d79b00;verticalAlign=top;" vertex="1" parent="1">
          <mxGeometry x="20" y="455.25" width="490" height="300" as="geometry" />
        </mxCell>
        <mxCell id="QgduFCgIXq2GSALbabZ4-10" value="Client" style="verticalLabelPosition=bottom;aspect=fixed;html=1;verticalAlign=top;strokeColor=none;shape=mxgraph.citrix.desktop;fillColor=#66B2FF;gradientColor=#0066CC;fontSize=14;" vertex="1" parent="1">
          <mxGeometry x="370" y="567.8800000000001" width="89" height="98" as="geometry" />
        </mxCell>
        <mxCell id="QgduFCgIXq2GSALbabZ4-11" value="Client" style="verticalLabelPosition=bottom;aspect=fixed;html=1;verticalAlign=top;strokeColor=none;shape=mxgraph.citrix.desktop;fillColor=#66B2FF;gradientColor=#0066CC;fontSize=14;" vertex="1" parent="1">
          <mxGeometry x="300" y="570.6300000000001" width="86.5" height="95.25" as="geometry" />
        </mxCell>
        <mxCell id="QgduFCgIXq2GSALbabZ4-12" value="Client" style="verticalLabelPosition=bottom;aspect=fixed;html=1;verticalAlign=top;strokeColor=none;shape=mxgraph.citrix.desktop;fillColor=#66B2FF;gradientColor=#0066CC;fontSize=14;" vertex="1" parent="1">
          <mxGeometry x="230" y="569.25" width="89" height="98" as="geometry" />
        </mxCell>
        <mxCell id="QgduFCgIXq2GSALbabZ4-13" value="" style="verticalLabelPosition=bottom;aspect=fixed;html=1;verticalAlign=top;strokeColor=none;align=center;outlineConnect=0;shape=mxgraph.citrix.site;" vertex="1" parent="1">
          <mxGeometry x="60" y="570.25" width="107" height="101" as="geometry" />
        </mxCell>
        <mxCell id="QgduFCgIXq2GSALbabZ4-15" value="JPLNet" style="whiteSpace=wrap;html=1;fillColor=#d5e8d4;fontSize=14;strokeColor=#82b366;verticalAlign=top;" vertex="1" parent="1">
          <mxGeometry x="720" y="455.25" width="562.5" height="300" as="geometry" />
        </mxCell>
        <mxCell id="QgduFCgIXq2GSALbabZ4-17" value="" style="endArrow=none;html=1;entryX=0.07;entryY=0.16;entryDx=0;entryDy=0;entryPerimeter=0;" edge="1" parent="1" target="6a7d8f32e03d9370-15">
          <mxGeometry width="50" height="50" relative="1" as="geometry">
            <mxPoint x="460" y="310" as="sourcePoint" />
            <mxPoint x="910" y="690" as="targetPoint" />
          </mxGeometry>
        </mxCell>
        <mxCell id="QgduFCgIXq2GSALbabZ4-18" value="" style="endArrow=none;html=1;" edge="1" parent="1" source="QgduFCgIXq2GSALbabZ4-10">
          <mxGeometry width="50" height="50" relative="1" as="geometry">
            <mxPoint x="860" y="740" as="sourcePoint" />
            <mxPoint x="880" y="622" as="targetPoint" />
          </mxGeometry>
        </mxCell>
        <mxCell id="6a7d8f32e03d9370-15" value="Splunk Server" style="verticalLabelPosition=top;aspect=fixed;html=1;verticalAlign=bottom;strokeColor=none;shape=mxgraph.citrix.cache_server;fillColor=#66B2FF;gradientColor=#0066CC;fontSize=14;labelPosition=center;align=center;" parent="1" vertex="1">
          <mxGeometry x="877" y="568.38" width="71" height="97.5" as="geometry" />
        </mxCell>
        <mxCell id="QgduFCgIXq2GSALbabZ4-20" value="" style="endArrow=none;html=1;entryX=0.127;entryY=0.817;entryDx=0;entryDy=0;entryPerimeter=0;" edge="1" parent="1" target="6a7d8f32e03d9370-15">
          <mxGeometry width="50" height="50" relative="1" as="geometry">
            <mxPoint x="460" y="926" as="sourcePoint" />
            <mxPoint x="890" y="632" as="targetPoint" />
          </mxGeometry>
        </mxCell>
        <mxCell id="QgduFCgIXq2GSALbabZ4-21" value="" style="verticalLabelPosition=bottom;aspect=fixed;html=1;verticalAlign=top;strokeColor=none;align=center;outlineConnect=0;shape=mxgraph.citrix.government;" vertex="1" parent="1">
          <mxGeometry x="990" y="574.25" width="212.83" height="93" as="geometry" />
        </mxCell>
      </root>
    </mxGraphModel>
  </diagram>
</mxfile>
